<svg width="128" height="107" viewBox="0 0 128 107" fill="none" xmlns="http://www.w3.org/2000/svg">
<path d="M61.1007 66.9845C60.5947 68.0279 60.6349 69.2555 61.2051 70.2659L69.3075 84.1491C69.9932 85.3262 69.9261 86.7947 69.1372 87.907C68.3794 89.0387 67.038 89.6303 65.6911 89.4368L49.7689 87.3353C49.2134 87.2571 48.6484 87.3125 48.1143 87.4901L47.2957 87.7884C47.0271 87.9342 46.7822 88.1261 46.5791 88.3576L35.7527 100.246C35.2123 100.82 34.5061 101.21 33.7291 101.36C31.8175 101.674 30.0034 100.405 29.6413 98.5007L26.9127 82.6588C26.6957 81.5094 25.9344 80.5378 24.8712 80.0527L10.1098 73.4559C8.87496 72.9033 8.07334 71.6898 8.0531 70.3386C8.02188 68.9949 8.73678 67.7453 9.91278 67.0943L24.132 59.4443C25.2309 58.9103 25.9806 57.85 26.1197 56.6358L27.7916 40.6615C27.8386 40.3021 27.9397 39.9504 28.0985 39.6257L28.2933 39.3151C28.378 39.1063 28.4938 38.9169 28.6365 38.7451L28.9217 38.5043L29.3582 38.1057L30.6299 37.6422C31.8086 37.346 33.0562 37.6612 33.9488 38.4857L45.5733 49.5453C46.4166 50.3569 47.606 50.7002 48.751 50.4711L64.5579 47.177C65.8927 46.8958 67.2723 47.3854 68.1326 48.4406C68.9698 49.5077 69.1129 50.9612 68.5007 52.1733L61.1007 66.9845Z" fill="url(#paint0_linear)"/>
<g opacity="0.5" filter="url(#filter0_f)">
<path d="M47.1784 58.9508C40.2651 58.9508 34.6543 64.5629 34.6543 71.4749C34.6543 78.3894 40.2651 83.999 47.1784 83.999C54.1042 83.999 59.7024 78.3894 59.7024 71.4749C59.7024 64.5629 54.1042 58.9508 47.1784 58.9508Z" fill="#FF3D22"/>
</g>
<g filter="url(#filter1_b)">
<path d="M97.9668 64.6509C96.6913 65.3872 95.8588 66.7064 95.7382 68.1749L94.3629 88.5439C94.2449 90.2699 93.128 91.766 91.5061 92.3731C89.9029 93.0228 88.0711 92.6888 86.793 91.5256L71.5519 77.9701C71.0236 77.4922 70.3902 77.1477 69.7021 76.9538L68.6289 76.6841C68.2427 76.646 67.8485 76.6733 67.4701 76.7719L47.6167 81.5552C46.6399 81.7729 45.619 81.6805 44.6954 81.2843C42.4624 80.2516 41.4594 77.625 42.4356 75.3652L50.8562 56.7665C51.4471 55.4035 51.339 53.8396 50.5671 52.572L39.7496 35.1179C38.8452 33.657 38.8672 31.8101 39.8088 30.3752C40.7336 28.9403 42.3755 28.1361 44.0758 28.2897L64.4756 30.3801C66.0113 30.6018 67.555 30.0213 68.5666 28.844L81.7075 13.2419C82.013 12.8976 82.3699 12.6 82.7683 12.3717L83.1943 12.184C83.4322 12.0248 83.6889 11.9083 83.9613 11.8294L84.4328 11.7794L85.1757 11.6714L86.8429 12.0903C88.2932 12.619 89.3801 13.8394 89.7309 15.3422L94.0704 35.2525C94.3787 36.7067 95.3844 37.9152 96.7514 38.4902L115.716 46.2913C117.32 46.9469 118.421 48.4446 118.574 50.167C118.693 51.8854 117.808 53.5155 116.301 54.3535L97.9668 64.6509Z" fill="#FFAC95" fill-opacity="0.4"/>
<path d="M94.8617 88.5779L94.8618 88.5775L96.2365 68.2158C96.2366 68.2146 96.2367 68.2133 96.2368 68.2121C96.3451 66.9088 97.0841 65.7388 98.2145 65.0853C98.2152 65.0848 98.216 65.0844 98.2168 65.084L116.544 54.7905C116.544 54.7902 116.545 54.7899 116.545 54.7896C118.221 53.8572 119.206 52.044 119.072 50.1322L119.073 50.1322L119.072 50.1229C118.903 48.2148 117.683 46.5554 115.906 45.8288C115.906 45.8287 115.906 45.8286 115.905 45.8285L96.9453 38.0294C96.9447 38.0291 96.9442 38.0289 96.9436 38.0287C95.7274 37.5164 94.8335 36.4411 94.5596 35.1488L94.559 35.146L90.2194 15.2357L90.2194 15.2357L90.2178 15.2285C89.8284 13.5604 88.6221 12.2067 87.0142 11.6206C86.998 11.6147 86.9815 11.6096 86.9648 11.6054L85.2975 11.1865C85.2342 11.1706 85.1683 11.1672 85.1037 11.1766L84.3704 11.2833L83.9086 11.3322C83.8794 11.3353 83.8505 11.3409 83.8222 11.3491C83.5176 11.4373 83.2266 11.5668 82.9544 11.7433L82.5667 11.9141C82.5506 11.9212 82.5349 11.9291 82.5197 11.9378C82.0705 12.1952 81.672 12.5285 81.3335 12.9101L81.3334 12.91L81.3251 12.9198L68.1874 28.5181C68.1868 28.5187 68.1863 28.5194 68.1858 28.52C67.2854 29.5666 65.9124 30.0823 64.547 29.8852C64.5449 29.8849 64.5428 29.8846 64.5406 29.8843C64.5359 29.8837 64.5312 29.8831 64.5265 29.8827L44.1268 27.7923L44.1268 27.7922L44.1208 27.7917C42.2354 27.6214 40.415 28.5129 39.3896 30.1026C38.3422 31.7004 38.3185 33.7561 39.3245 35.3811L39.3246 35.3813L50.1401 52.8321C50.1404 52.8327 50.1407 52.8332 50.1411 52.8338C50.8269 53.9612 50.9233 55.3515 50.399 56.5641C50.3985 56.5653 50.398 56.5665 50.3974 56.5677L41.9801 75.159L41.9801 75.1589L41.9766 75.1669C40.8929 77.6755 42.0062 80.5915 44.4856 81.7381L44.4855 81.7383L44.4983 81.7438C45.519 82.1817 46.647 82.2836 47.7254 82.0432L47.7254 82.0433L47.7338 82.0413L67.5872 77.258L67.5872 77.258L67.5961 77.2557C67.9033 77.1757 68.2255 77.1509 68.5444 77.1784L69.5732 77.437C70.187 77.611 70.749 77.9179 71.2164 78.3409L71.2196 78.3438L86.4565 91.8954C86.4571 91.896 86.4578 91.8966 86.4585 91.8972C87.8759 93.1858 89.9069 93.5578 91.6873 92.8391C93.4892 92.162 94.7305 90.498 94.8617 88.5779Z" stroke="url(#paint1_linear)" stroke-linecap="round" stroke-linejoin="round"/>
</g>
<defs>
<filter id="filter0_f" x="14.6543" y="38.9508" width="65.0481" height="65.0481" filterUnits="userSpaceOnUse" color-interpolation-filters="sRGB">
<feFlood flood-opacity="0" result="BackgroundImageFix"/>
<feBlend mode="normal" in="SourceGraphic" in2="BackgroundImageFix" result="shape"/>
<feGaussianBlur stdDeviation="10" result="effect1_foregroundBlur"/>
</filter>
<filter id="filter1_b" x="2.56473" y="-23.2136" width="148.55" height="145.581" filterUnits="userSpaceOnUse" color-interpolation-filters="sRGB">
<feFlood flood-opacity="0" result="BackgroundImageFix"/>
<feGaussianBlur in="BackgroundImage" stdDeviation="12"/>
<feComposite in2="SourceAlpha" operator="in" result="effect1_backgroundBlur"/>
<feBlend mode="normal" in="SourceGraphic" in2="effect1_backgroundBlur" result="shape"/>
</filter>
<linearGradient id="paint0_linear" x1="12.2127" y1="62.1216" x2="78.5567" y2="124.282" gradientUnits="userSpaceOnUse">
<stop stop-color="#FFA78F"/>
<stop offset="1" stop-color="#F23E2C"/>
</linearGradient>
<linearGradient id="paint1_linear" x1="57.0936" y1="13.9352" x2="88.9815" y2="87.6844" gradientUnits="userSpaceOnUse">
<stop stop-color="white" stop-opacity="0.25"/>
<stop offset="1" stop-color="white" stop-opacity="0"/>
</linearGradient>
</defs>
</svg>
